<?xml version="1.0" encoding="UTF-8"?>
<svg id="Layer_2" data-name="Layer 2" xmlns="http://www.w3.org/2000/svg" viewBox="0 0 223.89 354.26">
  <g id="Layer_1-2" data-name="Layer 1">
    <path d="m171.36,354.26c-8.84-1.94-14.71-8.25-20.73-14.26-46.94-46.85-93.87-93.7-140.75-140.62-13.19-13.2-13.17-31.01.01-44.19C58.33,106.75,106.8,58.33,155.3,9.95c13.36-13.33,30.64-13.22,44.13.08,4.67,4.61,9.33,9.23,13.98,13.86,13.87,13.81,14.01,31.25.21,45.16-16.79,16.92-33.69,33.72-50.54,50.58-17.91,17.91-35.82,35.82-53.73,53.74q-4.02,4.02-.11,7.93c34.7,34.66,69.41,69.32,104.11,103.98,5.51,5.51,9.41,11.77,10.15,19.82.82,8.91-1.53,16.69-7.69,23.1-6.22,6.47-12.77,12.63-19.14,18.95-3.62,3.6-8.27,5.3-12.86,7.13h-12.44Z"/>
  </g>
</svg>