<?xml version="1.0" encoding="UTF-8"?>
<svg id="Layer_2" data-name="Layer 2" xmlns="http://www.w3.org/2000/svg" viewBox="0 0 72.21 108.26">
  <g id="Layer_1-2" data-name="Layer 1">
    <g>
      <path d="m72.19,54.29c0,5.66.05,11.33-.01,16.99-.14,13.39-5.55,23.99-16.97,31.24-9.59,6.08-19.88,7.38-30.62,3.63-13.93-4.86-21.63-15.03-24.24-29.31C.06,75.26,0,73.62,0,71.99c.02-12.04.01-24.07.01-36.11,0-10.78,4.36-19.59,12.22-26.76C19.06,2.9,27.16-.23,36.39.01c13.01.34,23.17,5.96,30.21,17,3.82,5.99,5.6,12.57,5.59,19.66,0,5.87,0,11.75,0,17.62Zm-64-.18c0,6.08-.06,12.16.02,18.24.07,5.23,1.42,10.17,4.28,14.55,5.82,8.91,14.12,13.25,24.8,12.88,7.27-.25,13.57-2.92,18.66-8.1,5.32-5.4,8.02-11.99,8.05-19.59.05-11.5.01-22.99.01-34.49,0-1.5,0-2.99-.18-4.49-.83-7.07-3.79-13.05-9.07-17.84-5.92-5.35-12.93-7.46-20.82-6.93-5.34.36-10.23,2.05-14.45,5.29-7.41,5.66-11.21,13.24-11.28,22.6-.04,5.96,0,11.91,0,17.87Z"/>
      <path d="m32.01,32.03c0-1.83-.02-3.67,0-5.5.04-2.56,1.83-4.53,4.07-4.52,2.29,0,4.07,1.92,4.09,4.5.03,3.71.03,7.42,0,11.12-.02,2.55-1.8,4.47-4.09,4.49-2.29.03-4.03-1.87-4.07-4.47-.03-1.87,0-3.75,0-5.62Z"/>
    </g>
  </g>
</svg>