<?xml version="1.0" encoding="UTF-8"?>
<svg id="Layer_2" data-name="Layer 2" xmlns="http://www.w3.org/2000/svg" viewBox="0 0 40.12 46.13">
  <g id="Layer_1-2" data-name="Layer 1">
    <g>
      <path d="m20.16,24.14c-1.49-.05-2.48-.86-3.41-1.78-3.42-3.42-6.84-6.83-10.24-10.26-1.85-1.86-3.76-3.67-5.48-5.64C-.62,4.58-.22,2.28,1.79.81c1.42-1.04,2.96-1.09,4.4-.06.54.38,1.03.85,1.5,1.32,3.81,3.79,7.62,7.58,11.39,11.41.82.84,1.27.78,2.08-.05,3.86-3.97,7.78-7.89,11.73-11.77,2.5-2.45,5.5-2.01,6.86.87.5,1.06.52,2.1-.06,3.11-.29.5-.61,1.01-1.01,1.42-5.2,5.23-10.41,10.44-15.64,15.65-.81.81-1.77,1.38-2.88,1.44Z"/>
      <path d="m20.15,46.13c-1.45-.03-2.46-.83-3.39-1.76-2.71-2.71-5.42-5.42-8.13-8.13-2.15-2.15-4.31-4.29-6.45-6.45-.5-.5-.99-1.02-1.4-1.6-1.17-1.63-1.01-3.4.4-4.88,1.43-1.5,3.32-1.74,4.97-.59.54.38,1.03.84,1.5,1.31,3.81,3.79,7.62,7.58,11.39,11.41.79.8,1.23.87,2.08,0,3.86-3.98,7.78-7.89,11.73-11.77,2.51-2.46,5.49-2.06,6.87.82.53,1.1.5,2.16-.07,3.23-.36.67-.85,1.23-1.39,1.76-4.92,4.92-9.84,9.84-14.75,14.76-.96.96-1.98,1.79-3.36,1.89Z"/>
    </g>
  </g>
</svg>