<?xml version="1.0" encoding="UTF-8"?>
<svg id="Layer_2" data-name="Layer 2" xmlns="http://www.w3.org/2000/svg" viewBox="0 0 174.12 250.5">
  <defs>
    <style>
      .cls-1 {
        fill: #231f20;
        fill-rule: evenodd;
      }
    </style>
  </defs>
  <g id="Layer_1-2" data-name="Layer 1">
    <path class="cls-1" d="m59.19,80.64s-5.8-.28-14.68,6.1c-8.88,6.38-10.01,10.7-8.88,15.39,1.12,4.69,5.23,13.89,14.12,10.7,8.88-3.19,28.24-7.22,26.37-19.9-1.87-12.67-16.93-12.3-16.93-12.3h0Zm55.73,0s5.8-.28,14.68,6.1c8.88,6.38,10.01,10.7,8.88,15.39-1.12,4.69-5.24,13.89-14.12,10.7-8.88-3.19-28.24-7.22-26.37-19.9,1.87-12.67,16.93-12.3,16.93-12.3h0Zm-27.87,28.63s7.39,6.66,7.39,13.89-7.39,3.09-7.39,3.09c0,0-7.38,4.13-7.38-3.09s7.38-13.89,7.38-13.89h0ZM87.06,0s68.99-.88,68.99,71.55c0,0,.4,14.05-2.78,22.69-3.18,8.64-5.24,15.96-4.49,23.65.75,7.7-6.92,12.01-21.69,18.21,0,0-6.55,2.55-6.74,11.18-.19,8.63-2.34,11.73-4.58,13.61l-.66,8.16s-1.12,3.84-8.51,3.84-9.16-1.02-9.25-7.87l-3.13.19-.15,5.57s-.63,2.05-6.87,2.12c-.04,0-.09,0-.14,0-.04,0-.09,0-.14,0-6.23-.06-6.87-2.12-6.87-2.12l-.14-5.57-3.13-.19c-.1,6.85-1.87,7.87-9.26,7.87s-8.51-3.84-8.51-3.84l-.66-8.16c-2.24-1.88-4.39-4.97-4.58-13.61-.19-8.64-6.74-11.18-6.74-11.18-14.78-6.2-22.44-10.51-21.69-18.21.75-7.69-1.31-15.02-4.49-23.65-3.18-8.64-2.78-22.69-2.78-22.69C18.07-.87,87.06,0,87.06,0h0Zm57.49,155.71c-.36,8.84-4.32,10.58-4.32,10.58l-52.69,22.16-53.59-24.84c-2.56-1.2-9.05-2.55-12.16-12.93-3.11-10.38-6.63-6.67-12.77-3.07-6.15,3.61-3.69,9.29.04,12.83,3.72,3.54,7.13,4.69,1.32,7.44-5.81,2.75-9.37,4.03-9.3,7.43.07,3.4,2.86,11.4,8.05,12.57,5.18,1.17,7.8-4.51,13.31-6.99,5.51-2.49,13.86.76,13.86.76l31.15,14.13-38.22,13.26s-4.08,2.1-8.08-.03c-4-2.13-9-1.9-9-1.9-19.21.68-9.99,3.52-9.54,11.29.45,7.76,8.82,9.24,10,14.31,1.18,5.07-2.95,14.06,6.44,17.1,9.39,3.04,10.15-4.55,10.52-13.39.37-8.85,4.33-10.59,4.33-10.59l52.69-22.16,53.59,24.84c2.56,1.2,9.05,2.55,12.15,12.93,3.11,10.38,6.63,6.67,12.77,3.06,6.15-3.61,3.69-9.29-.04-12.82-3.72-3.54-7.13-4.69-1.32-7.44,5.81-2.75,9.37-4.03,9.3-7.43-.07-3.4-2.86-11.4-8.04-12.57-5.19-1.17-7.8,4.51-13.31,6.99-5.51,2.49-13.85-.76-13.85-.76l-31.16-14.13,38.22-13.26s4.08-2.1,8.08.04c4,2.13,9,1.89,9,1.89,19.21-.68,9.99-3.52,9.54-11.28-.45-7.76-8.81-9.24-10-14.32-1.19-5.07,2.95-14.05-6.44-17.09-9.39-3.04-10.15,4.55-10.52,13.39Z"/>
  </g>
</svg>